<mxfile host="app.diagrams.net" modified="2024-03-19T08:40:12.251Z" agent="Mozilla/5.0 (Windows NT 10.0; Win64; x64) AppleWebKit/537.36 (KHTML, like Gecko) Chrome/122.0.0.0 Safari/537.36" etag="StxgnmiZ7Kk4GZ6i689-" version="24.0.7" type="github">
  <diagram name="第 1 页" id="DAGRTdv7kkAqzBV7Zv9-">
    <mxGraphModel dx="2261" dy="-423" grid="1" gridSize="10" guides="1" tooltips="1" connect="1" arrows="1" fold="1" page="1" pageScale="1" pageWidth="827" pageHeight="1169" math="0" shadow="0">
      <root>
        <mxCell id="0" />
        <mxCell id="1" parent="0" />
        <mxCell id="lMIF8WrqZ08UB6Lh3qAM-1" value="发布流程" style="swimlane;childLayout=stackLayout;resizeParent=1;resizeParentMax=0;horizontal=1;startSize=20;horizontalStack=0;html=1;" vertex="1" parent="1">
          <mxGeometry x="-20" y="1480" width="2450" height="380" as="geometry" />
        </mxCell>
        <mxCell id="lMIF8WrqZ08UB6Lh3qAM-2" value="RYDEEN" style="swimlane;startSize=20;horizontal=0;html=1;" vertex="1" parent="lMIF8WrqZ08UB6Lh3qAM-1">
          <mxGeometry y="20" width="2450" height="120" as="geometry" />
        </mxCell>
        <mxCell id="lMIF8WrqZ08UB6Lh3qAM-3" value="" style="edgeStyle=orthogonalEdgeStyle;rounded=0;orthogonalLoop=1;jettySize=auto;html=1;" edge="1" parent="lMIF8WrqZ08UB6Lh3qAM-2" source="lMIF8WrqZ08UB6Lh3qAM-4" target="lMIF8WrqZ08UB6Lh3qAM-6">
          <mxGeometry relative="1" as="geometry" />
        </mxCell>
        <mxCell id="lMIF8WrqZ08UB6Lh3qAM-4" value="开始" style="strokeWidth=2;html=1;shape=mxgraph.flowchart.terminator;whiteSpace=wrap;" vertex="1" parent="lMIF8WrqZ08UB6Lh3qAM-2">
          <mxGeometry x="60" y="30" width="100" height="60" as="geometry" />
        </mxCell>
        <mxCell id="lMIF8WrqZ08UB6Lh3qAM-5" value="" style="edgeStyle=orthogonalEdgeStyle;rounded=0;orthogonalLoop=1;jettySize=auto;html=1;" edge="1" parent="lMIF8WrqZ08UB6Lh3qAM-2" source="lMIF8WrqZ08UB6Lh3qAM-6" target="lMIF8WrqZ08UB6Lh3qAM-8">
          <mxGeometry relative="1" as="geometry" />
        </mxCell>
        <mxCell id="lMIF8WrqZ08UB6Lh3qAM-6" value="开发" style="rounded=1;whiteSpace=wrap;html=1;absoluteArcSize=1;arcSize=14;strokeWidth=2;" vertex="1" parent="lMIF8WrqZ08UB6Lh3qAM-2">
          <mxGeometry x="220" y="30" width="110" height="60" as="geometry" />
        </mxCell>
        <mxCell id="lMIF8WrqZ08UB6Lh3qAM-7" value="" style="edgeStyle=orthogonalEdgeStyle;rounded=0;orthogonalLoop=1;jettySize=auto;html=1;" edge="1" parent="lMIF8WrqZ08UB6Lh3qAM-2" source="lMIF8WrqZ08UB6Lh3qAM-8">
          <mxGeometry relative="1" as="geometry">
            <mxPoint x="560" y="60" as="targetPoint" />
          </mxGeometry>
        </mxCell>
        <mxCell id="lMIF8WrqZ08UB6Lh3qAM-8" value="自测通过" style="rounded=1;whiteSpace=wrap;html=1;absoluteArcSize=1;arcSize=14;strokeWidth=2;" vertex="1" parent="lMIF8WrqZ08UB6Lh3qAM-2">
          <mxGeometry x="390" y="30" width="110" height="60" as="geometry" />
        </mxCell>
        <mxCell id="lMIF8WrqZ08UB6Lh3qAM-9" value="提测" style="rounded=1;whiteSpace=wrap;html=1;absoluteArcSize=1;arcSize=14;strokeWidth=2;" vertex="1" parent="lMIF8WrqZ08UB6Lh3qAM-2">
          <mxGeometry x="560" y="30" width="110" height="60" as="geometry" />
        </mxCell>
        <mxCell id="lMIF8WrqZ08UB6Lh3qAM-10" value="" style="edgeStyle=orthogonalEdgeStyle;rounded=0;orthogonalLoop=1;jettySize=auto;html=1;" edge="1" parent="lMIF8WrqZ08UB6Lh3qAM-2" source="lMIF8WrqZ08UB6Lh3qAM-11" target="lMIF8WrqZ08UB6Lh3qAM-12">
          <mxGeometry relative="1" as="geometry" />
        </mxCell>
        <mxCell id="lMIF8WrqZ08UB6Lh3qAM-11" value="开始测试" style="rounded=1;whiteSpace=wrap;html=1;absoluteArcSize=1;arcSize=14;strokeWidth=2;" vertex="1" parent="lMIF8WrqZ08UB6Lh3qAM-2">
          <mxGeometry x="1253" y="30" width="110" height="60" as="geometry" />
        </mxCell>
        <mxCell id="lMIF8WrqZ08UB6Lh3qAM-12" value="测试通过" style="rounded=1;whiteSpace=wrap;html=1;absoluteArcSize=1;arcSize=14;strokeWidth=2;" vertex="1" parent="lMIF8WrqZ08UB6Lh3qAM-2">
          <mxGeometry x="1426" y="30" width="110" height="60" as="geometry" />
        </mxCell>
        <mxCell id="lMIF8WrqZ08UB6Lh3qAM-13" value="" style="edgeStyle=orthogonalEdgeStyle;rounded=0;orthogonalLoop=1;jettySize=auto;html=1;" edge="1" parent="lMIF8WrqZ08UB6Lh3qAM-2" source="lMIF8WrqZ08UB6Lh3qAM-14" target="lMIF8WrqZ08UB6Lh3qAM-11">
          <mxGeometry relative="1" as="geometry" />
        </mxCell>
        <mxCell id="lMIF8WrqZ08UB6Lh3qAM-14" value="APP可自动&lt;span style=&quot;background-color: initial;&quot;&gt;拉取&lt;/span&gt;&lt;div&gt;&lt;span style=&quot;background-color: initial;&quot;&gt;最新的H5测试包&lt;/span&gt;&lt;/div&gt;" style="rounded=1;whiteSpace=wrap;html=1;absoluteArcSize=1;arcSize=14;strokeWidth=2;" vertex="1" parent="lMIF8WrqZ08UB6Lh3qAM-2">
          <mxGeometry x="1080" y="30" width="110" height="60" as="geometry" />
        </mxCell>
        <mxCell id="lMIF8WrqZ08UB6Lh3qAM-15" value="" style="edgeStyle=orthogonalEdgeStyle;rounded=0;orthogonalLoop=1;jettySize=auto;html=1;exitX=1;exitY=0.5;exitDx=0;exitDy=0;" edge="1" parent="lMIF8WrqZ08UB6Lh3qAM-1" source="lMIF8WrqZ08UB6Lh3qAM-9" target="lMIF8WrqZ08UB6Lh3qAM-21">
          <mxGeometry relative="1" as="geometry">
            <mxPoint x="680" y="80" as="sourcePoint" />
          </mxGeometry>
        </mxCell>
        <mxCell id="lMIF8WrqZ08UB6Lh3qAM-16" value="" style="rounded=0;orthogonalLoop=1;jettySize=auto;html=1;exitX=0.5;exitY=0;exitDx=0;exitDy=0;entryX=0.5;entryY=1;entryDx=0;entryDy=0;" edge="1" parent="lMIF8WrqZ08UB6Lh3qAM-1" source="lMIF8WrqZ08UB6Lh3qAM-24" target="lMIF8WrqZ08UB6Lh3qAM-14">
          <mxGeometry relative="1" as="geometry">
            <mxPoint x="1263" y="340" as="sourcePoint" />
            <mxPoint x="1263" y="405" as="targetPoint" />
          </mxGeometry>
        </mxCell>
        <mxCell id="lMIF8WrqZ08UB6Lh3qAM-17" value="" style="rounded=0;orthogonalLoop=1;jettySize=auto;html=1;exitX=0.5;exitY=1;exitDx=0;exitDy=0;entryX=0.5;entryY=0;entryDx=0;entryDy=0;" edge="1" parent="lMIF8WrqZ08UB6Lh3qAM-1" source="lMIF8WrqZ08UB6Lh3qAM-12" target="lMIF8WrqZ08UB6Lh3qAM-26">
          <mxGeometry relative="1" as="geometry">
            <mxPoint x="1200" y="185" as="sourcePoint" />
            <mxPoint x="1308" y="120" as="targetPoint" />
          </mxGeometry>
        </mxCell>
        <mxCell id="lMIF8WrqZ08UB6Lh3qAM-18" value="OPPO" style="swimlane;startSize=20;horizontal=0;html=1;" vertex="1" parent="lMIF8WrqZ08UB6Lh3qAM-1">
          <mxGeometry y="140" width="2450" height="240" as="geometry" />
        </mxCell>
        <mxCell id="lMIF8WrqZ08UB6Lh3qAM-19" value="" style="swimlane;startSize=0;swimlaneFillColor=none;dashed=1;" vertex="1" parent="lMIF8WrqZ08UB6Lh3qAM-18">
          <mxGeometry x="700" y="-110" width="180" height="270" as="geometry" />
        </mxCell>
        <mxCell id="lMIF8WrqZ08UB6Lh3qAM-20" value="代码合并同步" style="text;html=1;align=center;verticalAlign=middle;resizable=0;points=[];autosize=1;strokeColor=none;fillColor=none;" vertex="1" parent="lMIF8WrqZ08UB6Lh3qAM-19">
          <mxGeometry y="240" width="100" height="30" as="geometry" />
        </mxCell>
        <mxCell id="lMIF8WrqZ08UB6Lh3qAM-21" value="合并代码&lt;div&gt;到oppo分支&lt;/div&gt;" style="rounded=1;whiteSpace=wrap;html=1;absoluteArcSize=1;arcSize=14;strokeWidth=2;" vertex="1" parent="lMIF8WrqZ08UB6Lh3qAM-18">
          <mxGeometry x="735" y="-90" width="110" height="60" as="geometry" />
        </mxCell>
        <mxCell id="lMIF8WrqZ08UB6Lh3qAM-22" value="" style="edgeStyle=orthogonalEdgeStyle;rounded=0;orthogonalLoop=1;jettySize=auto;html=1;entryX=0;entryY=0.5;entryDx=0;entryDy=0;" edge="1" parent="lMIF8WrqZ08UB6Lh3qAM-18" source="lMIF8WrqZ08UB6Lh3qAM-35" target="lMIF8WrqZ08UB6Lh3qAM-24">
          <mxGeometry relative="1" as="geometry">
            <mxPoint x="905" y="65" as="targetPoint" />
          </mxGeometry>
        </mxCell>
        <mxCell id="lMIF8WrqZ08UB6Lh3qAM-23" value="拉取合并代码&lt;div&gt;到rydeen分支&lt;/div&gt;" style="rounded=1;whiteSpace=wrap;html=1;absoluteArcSize=1;arcSize=14;strokeWidth=2;" vertex="1" parent="lMIF8WrqZ08UB6Lh3qAM-18">
          <mxGeometry x="735" y="35" width="110" height="60" as="geometry" />
        </mxCell>
        <mxCell id="lMIF8WrqZ08UB6Lh3qAM-24" value="部署CDN" style="rounded=1;whiteSpace=wrap;html=1;absoluteArcSize=1;arcSize=14;strokeWidth=2;" vertex="1" parent="lMIF8WrqZ08UB6Lh3qAM-18">
          <mxGeometry x="1080" y="35" width="110" height="60" as="geometry" />
        </mxCell>
        <mxCell id="lMIF8WrqZ08UB6Lh3qAM-25" value="" style="edgeStyle=orthogonalEdgeStyle;rounded=0;orthogonalLoop=1;jettySize=auto;html=1;" edge="1" parent="lMIF8WrqZ08UB6Lh3qAM-18" source="lMIF8WrqZ08UB6Lh3qAM-37" target="lMIF8WrqZ08UB6Lh3qAM-28">
          <mxGeometry relative="1" as="geometry" />
        </mxCell>
        <mxCell id="lMIF8WrqZ08UB6Lh3qAM-26" value="打H5回归包" style="rounded=1;whiteSpace=wrap;html=1;absoluteArcSize=1;arcSize=14;strokeWidth=2;" vertex="1" parent="lMIF8WrqZ08UB6Lh3qAM-18">
          <mxGeometry x="1426" y="35" width="110" height="60" as="geometry" />
        </mxCell>
        <mxCell id="lMIF8WrqZ08UB6Lh3qAM-27" value="" style="edgeStyle=orthogonalEdgeStyle;rounded=0;orthogonalLoop=1;jettySize=auto;html=1;" edge="1" parent="lMIF8WrqZ08UB6Lh3qAM-18" source="lMIF8WrqZ08UB6Lh3qAM-28" target="lMIF8WrqZ08UB6Lh3qAM-30">
          <mxGeometry relative="1" as="geometry" />
        </mxCell>
        <mxCell id="lMIF8WrqZ08UB6Lh3qAM-28" value="回归测试" style="rounded=1;whiteSpace=wrap;html=1;absoluteArcSize=1;arcSize=14;strokeWidth=2;" vertex="1" parent="lMIF8WrqZ08UB6Lh3qAM-18">
          <mxGeometry x="1790" y="35" width="110" height="60" as="geometry" />
        </mxCell>
        <mxCell id="lMIF8WrqZ08UB6Lh3qAM-29" value="" style="edgeStyle=orthogonalEdgeStyle;rounded=0;orthogonalLoop=1;jettySize=auto;html=1;" edge="1" parent="lMIF8WrqZ08UB6Lh3qAM-18" source="lMIF8WrqZ08UB6Lh3qAM-30">
          <mxGeometry relative="1" as="geometry">
            <mxPoint x="2130" y="65" as="targetPoint" />
          </mxGeometry>
        </mxCell>
        <mxCell id="lMIF8WrqZ08UB6Lh3qAM-30" value="测试通过" style="rounded=1;whiteSpace=wrap;html=1;absoluteArcSize=1;arcSize=14;strokeWidth=2;" vertex="1" parent="lMIF8WrqZ08UB6Lh3qAM-18">
          <mxGeometry x="1960" y="35" width="110" height="60" as="geometry" />
        </mxCell>
        <mxCell id="lMIF8WrqZ08UB6Lh3qAM-31" value="H5自发布" style="rounded=1;whiteSpace=wrap;html=1;absoluteArcSize=1;arcSize=14;strokeWidth=2;" vertex="1" parent="lMIF8WrqZ08UB6Lh3qAM-18">
          <mxGeometry x="2130" y="35" width="110" height="60" as="geometry" />
        </mxCell>
        <mxCell id="lMIF8WrqZ08UB6Lh3qAM-32" value="" style="edgeStyle=orthogonalEdgeStyle;rounded=0;orthogonalLoop=1;jettySize=auto;html=1;" edge="1" parent="lMIF8WrqZ08UB6Lh3qAM-18" target="lMIF8WrqZ08UB6Lh3qAM-33">
          <mxGeometry relative="1" as="geometry">
            <mxPoint x="2240" y="65" as="sourcePoint" />
          </mxGeometry>
        </mxCell>
        <mxCell id="lMIF8WrqZ08UB6Lh3qAM-33" value="结束" style="strokeWidth=2;html=1;shape=mxgraph.flowchart.terminator;whiteSpace=wrap;" vertex="1" parent="lMIF8WrqZ08UB6Lh3qAM-18">
          <mxGeometry x="2310" y="35" width="100" height="60" as="geometry" />
        </mxCell>
        <mxCell id="lMIF8WrqZ08UB6Lh3qAM-34" value="" style="rounded=0;orthogonalLoop=1;jettySize=auto;html=1;exitX=0.5;exitY=1;exitDx=0;exitDy=0;entryX=0.5;entryY=0;entryDx=0;entryDy=0;" edge="1" parent="lMIF8WrqZ08UB6Lh3qAM-18" source="lMIF8WrqZ08UB6Lh3qAM-21" target="lMIF8WrqZ08UB6Lh3qAM-23">
          <mxGeometry relative="1" as="geometry">
            <mxPoint x="845" y="280" as="sourcePoint" />
            <mxPoint x="1185" y="340" as="targetPoint" />
          </mxGeometry>
        </mxCell>
        <mxCell id="lMIF8WrqZ08UB6Lh3qAM-35" value="打H5测试包" style="rounded=1;whiteSpace=wrap;html=1;absoluteArcSize=1;arcSize=14;strokeWidth=2;" vertex="1" parent="lMIF8WrqZ08UB6Lh3qAM-18">
          <mxGeometry x="910" y="35" width="110" height="60" as="geometry" />
        </mxCell>
        <mxCell id="lMIF8WrqZ08UB6Lh3qAM-36" value="" style="edgeStyle=orthogonalEdgeStyle;rounded=0;orthogonalLoop=1;jettySize=auto;html=1;entryX=0;entryY=0.5;entryDx=0;entryDy=0;" edge="1" parent="lMIF8WrqZ08UB6Lh3qAM-18" source="lMIF8WrqZ08UB6Lh3qAM-23" target="lMIF8WrqZ08UB6Lh3qAM-35">
          <mxGeometry relative="1" as="geometry">
            <mxPoint x="1060" y="1685" as="targetPoint" />
            <mxPoint x="825" y="1685" as="sourcePoint" />
          </mxGeometry>
        </mxCell>
        <mxCell id="lMIF8WrqZ08UB6Lh3qAM-37" value="部署CDN" style="rounded=1;whiteSpace=wrap;html=1;absoluteArcSize=1;arcSize=14;strokeWidth=2;" vertex="1" parent="lMIF8WrqZ08UB6Lh3qAM-18">
          <mxGeometry x="1610" y="35" width="110" height="60" as="geometry" />
        </mxCell>
        <mxCell id="lMIF8WrqZ08UB6Lh3qAM-38" value="" style="edgeStyle=orthogonalEdgeStyle;rounded=0;orthogonalLoop=1;jettySize=auto;html=1;" edge="1" parent="lMIF8WrqZ08UB6Lh3qAM-18" source="lMIF8WrqZ08UB6Lh3qAM-26" target="lMIF8WrqZ08UB6Lh3qAM-37">
          <mxGeometry relative="1" as="geometry">
            <mxPoint x="1510" y="1685" as="sourcePoint" />
            <mxPoint x="1757" y="1685" as="targetPoint" />
          </mxGeometry>
        </mxCell>
      </root>
    </mxGraphModel>
  </diagram>
</mxfile>
